<svg width="22" height="23" viewBox="0 0 22 23" fill="none" xmlns="http://www.w3.org/2000/svg">
<path d="M18.5 21.2295C19.3284 21.2295 20 20.5579 20 19.7295C20 18.9011 19.3284 18.2295 18.5 18.2295C17.6716 18.2295 17 18.9011 17 19.7295C17 20.5579 17.6716 21.2295 18.5 21.2295Z" stroke="black" stroke-width="2" stroke-linecap="round" stroke-linejoin="round"/>
<path d="M8.5 21.2295C9.3284 21.2295 10 20.5579 10 19.7295C10 18.9011 9.3284 18.2295 8.5 18.2295C7.67157 18.2295 7 18.9011 7 19.7295C7 20.5579 7.67157 21.2295 8.5 21.2295Z" stroke="black" stroke-width="2" stroke-linecap="round" stroke-linejoin="round"/>
<path d="M4 3.22952H21L19 14.2295H6L4 3.22952ZM4 3.22952C3.83333 2.56285 3 1.22952 1 1.22952" stroke="black" stroke-width="2" stroke-linecap="round" stroke-linejoin="round"/>
<path d="M19 14.2295H6H4.23077C2.44646 14.2295 1.5 15.0107 1.5 16.2295C1.5 17.4483 2.44646 18.2295 4.23077 18.2295H18.5" stroke="black" stroke-width="2" stroke-linecap="round" stroke-linejoin="round"/>
</svg>
