<svg class="" width="30" height="31" viewBox="0 0 30 31" fill="none" xmlns="http://www.w3.org/2000/svg">
<path d="M18.5 21C19.3284 21 20 20.3284 20 19.5C20 18.6716 19.3284 18 18.5 18C17.6716 18 17 18.6716 17 19.5C17 20.3284 17.6716 21 18.5 21Z" fill="black" stroke="black" stroke-width="2" stroke-linecap="round" stroke-linejoin="round"/>
<path d="M8.5 21C9.3284 21 10 20.3284 10 19.5C10 18.6716 9.3284 18 8.5 18C7.67157 18 7 18.6716 7 19.5C7 20.3284 7.67157 21 8.5 21Z" fill="black" stroke="black" stroke-width="2" stroke-linecap="round" stroke-linejoin="round"/>
<path d="M4 3H21L19 14H6L4 3ZM4 3C3.83333 2.33333 3 1 1 1" stroke="black" stroke-width="2" stroke-linecap="round" stroke-linejoin="round"/>
<path d="M19 14H6H4.23077C2.44646 14 1.5 14.7812 1.5 16C1.5 17.2188 2.44646 18 4.23077 18H18.5" stroke="black" stroke-width="2" stroke-linecap="round" stroke-linejoin="round"/>
<circle cx="22" cy="23" r="8" fill="#F6C537"/>
<path d="M21.324 28V18.76L21.926 19.418H19.112V18.2H22.71V28H21.324Z" fill="white"/>
</svg>
